# xmcd
#
# Track frame offsets: 
#        150
#        16230
#        30117
#        49590
#        60980
#        78467
#        91142
#        106042
#        119965
#        137257
#        155542
#        166970
#        179792
#        196797
#        212055
#        226020
#        247317
#        265360
#
# Disc length: 3750 seconds
#
# Revision: 0
# Processed by: cddbd v1.5.1PL0 Copyright (c) Steve Scherf et al.
# Submitted via: ExactAudioCopy v0.95a5
#
DISCID=e60ea412
DTITLE=Tulsa - An hour of Tulsa
DYEAR=1900
DGENRE=
TTITLE0=If I need you
TTITLE1=Loving her was easter
TTITLE2=Love hurts
TTITLE3=Dream (All I have to do is dream)
TTITLE4=I can't stop loving you
TTITLE5=Don't it make my brown eyes blue
TTITLE6=Good hearted woman
TTITLE7=You're my best friend
TTITLE8=Blue bayou
TTITLE9=Some days are diamonds
TTITLE10=It's so easy
TTITLE11=Me and you and a dog named Boo
TTITLE12=Let me be your friend
TTITLE13=You needed me
TTITLE14=It's got to be love tonight
TTITLE15=Then came you
TTITLE16=Passing thing
TTITLE17=Only a dream (First take)
EXTD=
EXTT0=
EXTT1=
EXTT2=
EXTT3=
EXTT4=
EXTT5=
EXTT6=
EXTT7=
EXTT8=
EXTT9=
EXTT10=
EXTT11=
EXTT12=
EXTT13=
EXTT14=
EXTT15=
EXTT16=
EXTT17=
PLAYORDER=
